<?xml version="1.0" encoding="utf-8"?>
<!-- Generator: Adobe Illustrator 21.1.0, SVG Export Plug-In . SVG Version: 6.00 Build 0)  -->
<svg version="1.1" id="Layer_1" xmlns="http://www.w3.org/2000/svg" xmlns:xlink="http://www.w3.org/1999/xlink" x="0px" y="0px"
	 viewBox="0 0 160 65" style="enable-background:new 0 0 160 65;" xml:space="preserve">
<g>
	<path d="M157.9,49.4c-1.2,0.2-2.5,0.3-3.8,0.4c0,0.1,0,0.1,0,0.1c-2.4,17.4-26.2,20.2-26.8,6.6c-0.3-6.2,11.6-8,23.4-9.1
		c0.4-11.1-15.9,5.7-21.6-4.6c-5-9,14.6-17.9,16.7-16.1c6.4,5.6,3.4,6.6-1.4,8.3c-9.5,3.4-5.8,4.1-4.5,3.7c7.6-2.3,14.4-1,14.3,8.3
		c1.3-0.1,2.5-0.2,3.8-0.3C160.4,46.5,160.6,49.2,157.9,49.4z M150.4,50.1c-9.1,1-17,2.4-16.2,5.4C136,61.1,147.8,62.3,150.4,50.1z"
		/>
</g>
<g>
	<path d="M117.7,44.9c-0.7,0-0.7-6,0.1-11.7c1-7,11.9-3.4,9.1-1.9c-3,1.5-4.4,8.7-6.3,12.1C120,44.6,118,44.9,117.7,44.9z"/>
</g>
<g>
	<path d="M42.1,21c2.4,4.9-4.9,8.2-8.3,4.5c-1.4-1.6-0.8-4.6,2.6-6.2C38.1,18.5,40.5,17.7,42.1,21z"/>
</g>
<g>
	<path d="M57.1,18.9c2.6,5.3-5.4,8.9-9,4.9c-1.5-1.7-0.8-5,2.9-6.7C52.8,16.1,55.3,15.3,57.1,18.9z"/>
</g>
<g>
	<path d="M28.9,61.7C21,67,14.7,65.8,16.7,50.8c1.5-10.9-0.9-11.5-3.1-9.4c-2.8,2.7-4.6,9.7-4.7,16.4c0.3,1.7,0.6,3.3,1,4.8
		c0.3,1.6-4.9,3.3-8,1C0.8,62.8,0,54.9,0,44.1C0,35.3,1.2,29.2,2.2,29c8-2.2,9.3,1.3,7.6,8c-0.7,2.8-1.2,5.4-1.4,7.9
		c1.7-4.7,4.1-8.5,6.8-10.2c7.4-4.7,13.6-2.5,12.4,6.8c-2,16.6-2.2,18.8-0.4,17.5C29.5,57.5,30.9,60.3,28.9,61.7z"/>
</g>
<g>
	<path d="M55,59.6c-2.2,3.5-7.8,5.2-13.2,4.6C34,63.3,29.2,56.4,31.1,46c2-11.2,18.1-18.3,23.2-10.3c3.7,5.8-2.2,16-11.6,19.8
		c-0.2,0.1-0.3,0.1-0.5,0.2c2,5.2,6.6,7.5,11,2.4C55.3,55.7,56.8,56.7,55,59.6z M41.4,52.2c5.9-4.2,7.8-13.3,6.2-15.9
		c-1.7-2.7-5.1,1.5-6.2,11.7C41.2,49.5,41.2,50.9,41.4,52.2z"/>
</g>
<g>
	<path d="M83.1,45c-1.6,2.5-3.9,4.4-6,5.1c-2.4,0.7-5.2,0.1-5.2-2.7c0-1,0.9-3.4,3.6-4.7c-0.2-1.9-1.4-2.4-2.3-1.7
		c-3.3,2.6-7.4,12.3-6.4,19.2c0.1,0.2,0.1,0.3,0.1,0.5c0.2,0.6,0.3,1.2,0.6,1.9c0.6,1.6-4.9,3.3-8,1c-1.1-0.8-1.6-7-1.6-17.7
		c0-8.8,2-16.6,3-16.9c6.4-1.7,10.1,1.3,8.1,7.2c-1.2,3.4-2.2,6.8-2.8,10.4c2.5-6.7,6.5-12.9,9.8-14.5c5.9-2.9,10.1,1,8.9,7.8
		c-0.1,0.1-0.1,0.4-0.1,0.4c-0.1,0.6-0.6,2.3-0.4,1.7C83.9,43.7,83.5,44.3,83.1,45z"/>
</g>
<g>
	<path d="M113.2,26.2c-0.4,2.3-0.8,4.8-1.1,7.5c-1.1,10.1-0.6,19,0.6,23c0.7,2.1,3.5,4.9,6.1,2c2.8-3.2,6-1.3,2.2,2.4
		c-2.3,2.3-6.7,3.9-11,3.4c-3.1-0.4-5-2.4-6.1-5.5c-0.4,0.9-0.9,1.7-1.6,2.3c-2.1,2.2-4.7,3.4-8,3.1c-6.6-0.7-10.5-7.9-8.7-18.2
		c2-10.8,11.3-14.7,16.7-11.9c0.1-1.3,0.2-2.7,0.3-4.1c0.1-0.3,0.1-0.6,0.1-0.8c-1.6,0.3-3.2,0.7-5,1c-24,4-15.7-15.6-9.9-20.7
		c6.6-5.7,7.4-1.9,5.3-0.6c-3.7,2.4-5.3,15.9,5.2,15.9c1.7,0,3.3-0.1,5-0.3c3.3-18.3,13.3-27.2,21.4-24.3
		C133.7,3.8,132.8,18.1,113.2,26.2z M102.3,50.6c-0.2-3.5-0.2-7.5-0.2-11.6c0-0.5,0.1-1,0.1-1.5c-3.3-1.5-6.6,3.7-7.5,10.8
		c-0.9,8.4,2.8,12.8,4.9,10.8C101.2,57.4,102.1,52.2,102.3,50.6z M126.4,7.4c-1.8-2.6-8.3,0.6-12.1,14.3
		C123.8,17.2,127.6,9.3,126.4,7.4z"/>
</g>
</svg>
