<svg id="Layer_1" data-name="Layer 1" xmlns="http://www.w3.org/2000/svg" viewBox="0 0 26.01 15"><defs><style>.cls-1{fill:#fff;}</style></defs><title>vk-icon</title><path class="cls-1" d="M16.14,11.51c1-.31,2.18,2,3.48,2.94a2.45,2.45,0,0,0,1.73.53l3.47-.05s1.82-.11,1-1.55a11.7,11.7,0,0,0-2.58-3c-2.18-2-1.88-1.71.74-5.24,1.6-2.15,2.24-3.47,2-4S24.6.69,24.6.69l-3.91,0a.8.8,0,0,0-.85.51,23.28,23.28,0,0,1-1.44,3.08c-1.74,3-2.44,3.15-2.72,3-.66-.43-.49-1.74-.49-2.66,0-2.9.43-4.11-.85-4.42A6.61,6.61,0,0,0,12.5,0,8.29,8.29,0,0,0,9.26.33c-.44.22-.79.71-.58.74a1.75,1.75,0,0,1,1.15.59,3.86,3.86,0,0,1,.39,1.79s.23,3.41-.54,3.83c-.53.29-1.25-.3-2.8-3A25.38,25.38,0,0,1,5.49,1.35,1.18,1.18,0,0,0,5.16.9a1.61,1.61,0,0,0-.6-.24L.85.68S.29.7.08.95s0,.67,0,.67S3,8.49,6.27,12a8.86,8.86,0,0,0,6.45,3h1.56a1.32,1.32,0,0,0,.71-.31,1.14,1.14,0,0,0,.21-.69S15.17,11.82,16.14,11.51Z" transform="translate(0 0)"/></svg>